# File exported by Houdini 15.5.565 (www.sidefx.com)
# 30 points
# 180 vertices
# 60 primitives
# Bounds: [-1.00425482, -1.01995087, -0.107790068] to [1.0210439, 1.01755834, 0.130462036]
g 
v 1.0210439 0.0484602414 0.0318180248
v 0.93445915 0.04478506 -0.0255367421
v 0.928285182 0.0414417237 0.0781488717
v 0.812679768 0.668158591 0.0509917773
v 0.731157541 0.606131434 0.0334770791
v 0.754222572 0.63549 0.130462036
v 0.373077393 0.963310778 -0.107790068
v 0.33725208 0.87001425 -0.0792891234
v 0.356915444 0.942336321 -0.00729696453
v -0.331645995 1.00036216 -0.0461489372
v -0.303217858 0.924918115 0.0194257442
v -0.332462788 1.01755834 0.0563382655
v -0.738427699 0.610588491 -0.0642029792
v -0.697582901 0.581355214 0.0267757066
v -0.783886075 0.639214516 0.0247581787
v -0.921079159 0.0198069103 -0.0640555918
v -0.909327507 0.0207369197 0.0391967073
v -1.00425482 0.0285554621 -0.00236865692
v -0.818847716 -0.524472058 -0.0251364615
v -0.843582451 -0.53710711 0.0750062093
v -0.906235576 -0.57431978 0.000913001597
v -0.308885366 -0.922705412 -0.0183861405
v -0.326756477 -0.984887302 0.0629406422
v -0.342202038 -1.01995087 -0.0336615741
v 0.315196723 -0.897735119 -0.0266204998
v 0.344791472 -0.983789265 0.0235675555
v 0.346850395 -0.980904162 -0.0802950487
v 0.793595433 -0.531725407 0.0596709289
v 0.880946755 -0.58619982 0.0738936812
v 0.849924147 -0.561924875 -0.0222745538
vt 0.441105098 0.576466143 0
vt 0.462093502 0.575575233 0
vt 0.511374414 0.711647272 0
vt 0.878141403 0.569690943 0
vt 0.903275073 0.568880498 0
vt 0.915955961 0.712879598 0
vt 0.756134152 0.248519108 0
vt 0.77861917 0.250220388 0
vt 0.728111088 0.400437176 0
vt 0.491613209 0.726682901 0
vt 0.511374414 0.711647272 0
vt 0.606858313 0.775613308 0
vt 0.531822562 0.915718675 0
vt 0.537413597 0.939228117 0
vt 0.441105127 0.905834913 0
vt 0.81394732 0.827645957 0
vt 0.82811749 0.846909761 0
vt 0.721556544 0.885398924 0
vt 0.598174155 0.798228681 0
vt 0.606858313 0.775613308 0
vt 0.762110174 0.788922191 0
vt 0.325185359 0.772733569 0
vt 0.329951793 0.790264666 0
vt 0.162844419 0.80849874 0
vt 0.71763885 0.861039162 0
vt 0.721556544 0.885398924 0
vt 0.550729454 0.870456994 0
vt 0.769001245 0.807210028 0
vt 0.762110174 0.788922191 0
vt 0.857705474 0.705641508 0
vt 0.169933483 0.786042452 0
vt 0.162844419 0.80849874 0
vt 0.0534180515 0.71678704 0
vt 0.550531447 0.845613778 0
vt 0.550729454 0.870456994 0
vt 0.452124357 0.874833345 0
vt 0.970136523 0.700827539 0
vt 0.948083103 0.693741262 0
vt 0.945072174 0.557845771 0
vt 0.0743382052 0.702761769 0
vt 0.0534180515 0.71678704 0
vt 0 0.568761408 0
vt 0.865157604 0.3419891 0
vt 0.84359318 0.335050046 0
vt 0.843628883 0.191842824 0
vt 0.97010082 0.557620287 0
vt 0.945072174 0.557845771 0
vt 0.93639183 0.422622651 0
vt 0.0230106674 0.566866219 0
vt 0 0.568761408 0
vt 0.0237601623 0.422622621 0
vt 0.435804337 0.254161119 0
vt 0.415642321 0.252040416 0
vt 0.390861124 0.120105565 0
vt 0.00599577464 0.911290944 0
vt 0 0.887016058 0
vt 0.125280187 0.889940798 0
vt 0.814242423 0.117042787 0
vt 0.79905504 0.108022325 0
vt 0.935778558 0 0
vt 0.412044197 0.108022325 0
vt 0.390861124 0.120105565 0
vt 0.267244667 0.0235725921 0
vt 0.129612193 0.909654677 0
vt 0.125280187 0.889940798 0
vt 0.288065434 0.899484992 0
vt 0.125280187 0.863655388 0
vt 0.121536136 0.84023875 0
vt 0.288564503 0.828934669 0
vt 0.275320768 0 0
vt 0.267244667 0.0235725921 0
vt 0.115965299 0.029625468 0
vt 0.607519686 0.0208597854 0
vt 0.614693522 0 0
vt 0.744659245 0.0963768885 0
vt 0.288065434 0.854111254 0
vt 0.288564503 0.828934669 0
vt 0.410511136 0.842998981 0
vt 0.108292349 0.00946503971 0
vt 0.115965299 0.029625468 0
vt 0 0.118347332 0
vt 0.723484993 0.109581649 0
vt 0.744659245 0.0963768885 0
vt 0.77861917 0.250220388 0
vt 0.79905504 0.191842824 0
vt 0.822366536 0.197727144 0
vt 0.82315731 0.344795465 0
vt 0.878932178 0.422622621 0
vt 0.898795962 0.429943085 0
vt 0.903275073 0.568880498 0
vt 0.723484993 0.109581649 0
vt 0.77861917 0.250220388 0
vt 0.756134152 0.248519108 0
vt 0.878932178 0.422622621 0
vt 0.903275073 0.568880498 0
vt 0.878141403 0.569690943 0
vt 0.475065082 0.422622621 0
vt 0.462093502 0.575575233 0
vt 0.441105098 0.576466143 0
vt 0.907347381 0.137478724 0
vt 0.921001613 0.157342553 0
vt 0.79905504 0.171406895 0
vt 0.410511136 0.842998981 0
vt 0.418031126 0.866310477 0
vt 0.288065434 0.854111254 0
vt 0.744659245 0.0963768885 0
vt 0.723484993 0.109581649 0
vt 0.607519686 0.0208597854 0
vt 0.115965299 0.029625468 0
vt 0.108292349 0.00946503971 0
vt 0.275320768 0 0
vt 0.288564503 0.828934669 0
vt 0.288065434 0.854111254 0
vt 0.125280187 0.863655388 0
vt 0.614693522 0 0
vt 0.607519686 0.0208597854 0
vt 0.456240296 0.0148069113 0
vt 0.267244667 0.0235725921 0
vt 0.275320768 0 0
vt 0.412044197 0.108022325 0
vt 0.121536136 0.84023875 0
vt 0.125280187 0.863655388 0
vt 0 0.866580129 0
vt 0.125280187 0.889940798 0
vt 0.129612193 0.909654677 0
vt 0.00599577464 0.911290944 0
vt 0.390861124 0.120105565 0
vt 0.412044197 0.108022325 0
vt 0.435804337 0.254161119 0
vt 0.885593534 0.191842824 0
vt 0.903553963 0.200863287 0
vt 0.894873679 0.336086363 0
vt 0.93639183 0.422622651 0
vt 0.960666716 0.425685436 0
vt 0.97010082 0.557620287 0
vt 0.415642321 0.252040416 0
vt 0.435804337 0.254161119 0
vt 0.382386297 0.402186722 0
vt 0 0.568761408 0
vt 0.0230106674 0.566866219 0
vt 0.0743382052 0.702761769 0
vt 0.945072174 0.557845771 0
vt 0.97010082 0.557620287 0
vt 0.970136523 0.700827539 0
vt 0.452124357 0.874833345 0
vt 0.441105098 0.853268921 0
vt 0.550531447 0.845613778 0
vt 0.0534180515 0.71678704 0
vt 0.0743382052 0.702761769 0
vt 0.169933483 0.786042452 0
vt 0.567750394 0.927888393 0
vt 0.557849526 0.905834913 0
vt 0.656454623 0.910211265 0
vt 0.550729454 0.870456994 0
vt 0.550531447 0.845613778 0
vt 0.71763885 0.861039162 0
vt 0.162844419 0.80849874 0
vt 0.169933483 0.786042452 0
vt 0.325185359 0.772733569 0
vt 0.762110174 0.788922191 0
vt 0.769001245 0.807210028 0
vt 0.598174155 0.798228681 0
vt 0.721556544 0.885398924 0
vt 0.71763885 0.861039162 0
vt 0.81394732 0.827645957 0
vt 0.329951793 0.790264666 0
vt 0.325185359 0.772733569 0
vt 0.420669228 0.708767593 0
vt 0.606858313 0.775613308 0
vt 0.598174155 0.798228681 0
vt 0.491613209 0.726682901 0
vt 0.867817283 0.979564011 0
vt 0.848553479 0.971645057 0
vt 0.861234307 0.827645957 0
vt 0.915955961 0.712879598 0
vt 0.892446518 0.705762982 0
vt 0.878141403 0.569690943 0
vt 0.511374414 0.711647272 0
vt 0.491613209 0.726682901 0
vt 0.441105098 0.576466143 0
vn 0.522952378 0.274239868 -0.807039857
vn 0.522952318 0.274239838 -0.807039797
vn 0.522952378 0.274239868 -0.807039857
vn -0.959114075 -0.275220096 -0.0659849867
vn -0.959114075 -0.275220096 -0.0659849867
vn -0.959114134 -0.275220126 -0.0659849867
vn 0.436426282 0.119148493 0.891815901
vn 0.436426282 0.119148493 0.891815901
vn 0.436426282 0.1191485 0.89181596
vn 0.244832024 -0.0483454578 -0.96835947
vn 0.244832009 -0.0483454503 -0.968359411
vn 0.244832009 -0.048345454 -0.968359411
vn -0.645323634 -0.674942434 0.357784957
vn -0.645323694 -0.674942434 0.357784957
vn -0.645323694 -0.674942434 0.357784957
vn 0.318575948 0.771078289 0.551314473
vn 0.318575919 0.771078289 0.551314414
vn 0.318575919 0.771078289 0.551314414
vn -0.167412654 -0.228677079 -0.958999395
vn -0.167412639 -0.228677079 -0.958999336
vn -0.167412624 -0.228677049 -0.958999276
vn -0.0112495711 -0.70390588 0.710204124
vn -0.0112495711 -0.70390588 0.710204184
vn -0.0112495711 -0.70390588 0.710204184
vn 0.0699885041 0.974194407 0.214585364
vn 0.0699885041 0.974194407 0.214585364
vn 0.0699885041 0.974194407 0.214585364
vn 0.421012044 -0.499464601 -0.75715518
vn 0.421012074 -0.499464601 -0.75715524
vn 0.421012074 -0.499464601 -0.75715518
vn 0.194315225 -0.309543222 0.930819392
vn 0.19431521 -0.309543222 0.930819333
vn 0.19431521 -0.309543222 0.930819333
vn -0.683405101 0.71906662 -0.126097724
vn -0.683405161 0.71906662 -0.126097739
vn -0.683405161 0.719066679 -0.126097739
vn 0.821338356 -0.320670784 -0.471777052
vn 0.821338356 -0.320670784 -0.471777052
vn 0.821338296 -0.320670754 -0.471777052
vn -0.0427461043 -0.0289372057 0.998666883
vn -0.0427461006 -0.0289372019 0.998666763
vn -0.0427460968 -0.0289372019 0.998666763
vn -0.825316012 0.255036622 -0.503795266
vn -0.825316131 0.255036652 -0.503795326
vn -0.825316131 0.255036652 -0.503795326
vn 0.98754251 0.109109268 -0.113379836
vn 0.98754251 0.109109275 -0.113379836
vn 0.987542391 0.109109268 -0.113379829
vn -0.404555738 -0.060808219 0.912489533
vn -0.404555738 -0.0608082153 0.912489414
vn -0.404555738 -0.0608082153 0.912489474
vn -0.598554969 -0.168427691 -0.783175647
vn -0.598554969 -0.168427691 -0.783175707
vn -0.598554909 -0.168427676 -0.783175647
vn 0.63744086 0.729010701 0.249424323
vn 0.63744086 0.729010642 0.249424323
vn 0.63744086 0.729010701 0.249424323
vn -0.434587568 -0.602026522 0.669849157
vn -0.434587508 -0.602026463 0.669849098
vn -0.434587508 -0.602026463 0.669849098
vn -0.160317913 -0.221601248 -0.961868525
vn -0.160317928 -0.221601263 -0.961868584
vn -0.160317913 -0.221601248 -0.961868584
vn 0.0345787704 0.790245116 0.611814439
vn 0.0345787704 0.790245116 0.611814439
vn 0.0345787704 0.790245175 0.611814439
vn 0.0756307766 -0.941119969 0.32950446
vn 0.075630784 -0.941120028 0.32950449
vn 0.0756307691 -0.941119909 0.32950446
vn -0.019486513 0.161660954 -0.986653924
vn -0.019486513 0.161660939 -0.986653924
vn -0.0194865111 0.161660939 -0.986653924
vn -0.358496547 0.375239551 0.854795575
vn -0.358496517 0.375239521 0.854795635
vn -0.358496547 0.375239551 0.854795575
vn 0.640523851 -0.767889738 -0.00863298494
vn 0.640523911 -0.767889798 -0.00863298588
vn 0.640523911 -0.767889738 -0.00863298588
vn -0.207758799 0.473370105 -0.856012166
vn -0.207758814 0.473370135 -0.856012225
vn -0.207758814 0.473370135 -0.856012225
vn -0.105754077 0.0890045315 0.99040103
vn -0.105754085 0.0890045315 0.990401089
vn -0.105754085 0.089004539 0.990401089
vn 0.933197677 -0.131823212 -0.334312379
vn 0.933197677 -0.131823212 -0.334312379
vn 0.933197677 -0.131823212 -0.33431235
vn -0.771221399 0.20070605 -0.60409832
vn -0.77122128 0.200706035 -0.60409826
vn -0.771221399 0.20070605 -0.60409832
vn 0.450905353 -0.13440609 0.882394135
vn 0.450905323 -0.13440609 0.882394135
vn 0.450905323 -0.13440609 0.882394135
vn -0.989002466 0.137508318 -0.054456275
vn -0.989002585 0.137508363 -0.0544562861
vn -0.989002526 0.137508333 -0.0544562824
vn 0.548848689 -0.175340533 -0.817325473
vn 0.548848689 -0.175340518 -0.817325413
vn 0.548848629 -0.175340518 -0.817325413
vn -0.483226269 0.659891605 -0.575356841
vn -0.483226269 0.659891605 -0.575356901
vn -0.48322624 0.659891546 -0.575356781
vn 0.57557565 -0.729366064 -0.369780868
vn 0.57557565 -0.729366064 -0.369780838
vn 0.57557559 -0.729366004 -0.369780838
vn -0.168257847 -0.0124588143 0.985664248
vn -0.168257862 -0.0124588162 0.985664308
vn -0.168257833 -0.0124588143 0.985664189
vn -0.0869228542 0.516631126 -0.851784468
vn -0.0869228542 0.516631126 -0.851784408
vn -0.0869228542 0.516631126 -0.851784408
vn 6.45028922e-06 -0.999614418 -0.0277672336
vn 6.45029013e-06 -0.999614477 -0.0277672354
vn 6.45028922e-06 -0.999614358 -0.0277672336
vn -0.00865355507 0.501553416 0.865083337
vn -0.00865355507 0.501553416 0.865083337
vn -0.008653556 0.501553476 0.865083337
vn 0.0488913991 0.138624504 -0.989137411
vn 0.0488913953 0.138624504 -0.989137352
vn 0.0488913991 0.138624504 -0.989137471
vn -0.607404768 -0.710630953 0.355053484
vn -0.607404888 -0.710631073 0.355053544
vn -0.607404828 -0.710631073 0.355053544
vn 0.489806026 0.637311041 0.594915748
vn 0.489806056 0.637311101 0.594915748
vn 0.489806026 0.637311041 0.594915748
vn -0.260325253 -0.0475745983 -0.964348197
vn -0.260325283 -0.0475746021 -0.964348197
vn -0.260325253 -0.0475745946 -0.964348197
vn -0.751200497 -0.0462654904 0.658450603
vn -0.751200557 -0.0462654978 0.658450723
vn -0.751200557 -0.0462654904 0.658450663
vn 0.945919275 0.196147248 0.258385301
vn 0.945919216 0.196147248 0.258385301
vn 0.945919216 0.196147218 0.258385271
vn -0.562286258 0.238091543 -0.791925967
vn -0.562286258 0.238091528 -0.791925848
vn -0.562286258 0.238091543 -0.791925848
vn -0.384137571 0.165213987 0.908373594
vn -0.384137571 0.165213972 0.908373594
vn -0.384137601 0.165213987 0.908373654
vn 0.950044096 -0.293750703 -0.105483353
vn 0.950044096 -0.293750703 -0.105483346
vn 0.950044155 -0.293750703 -0.105483346
vn -0.537727535 0.682869136 -0.494508535
vn -0.537727594 0.682869196 -0.494508594
vn -0.537727535 0.682869136 -0.494508564
vn -0.00510367891 0.0272434819 0.999615788
vn -0.00510367937 0.0272434857 0.999615848
vn -0.00510367937 0.0272434857 0.999615848
vn 0.618635535 -0.623486102 -0.478074431
vn 0.618635535 -0.623486102 -0.478074402
vn 0.618635535 -0.623486161 -0.478074431
vn 0.0920238122 0.982148647 -0.164059892
vn 0.0920238122 0.982148707 -0.164059892
vn 0.0920238122 0.982148647 -0.164059892
vn 0.115263976 -0.336067796 0.934758067
vn 0.115263969 -0.336067796 0.934758067
vn 0.115263984 -0.336067796 0.934758127
vn -0.0994676799 -0.673847914 -0.732144296
vn -0.0994676873 -0.673847914 -0.732144296
vn -0.0994676873 -0.673847973 -0.732144296
vn 0.534419417 0.806090653 0.254192293
vn 0.534419417 0.806090653 0.254192322
vn 0.534419358 0.806090593 0.254192322
vn -0.537208557 -0.517181933 0.666280687
vn -0.537208557 -0.517181873 0.666280627
vn -0.537208498 -0.517181814 0.666280627
vn 0.116219357 -0.330729663 -0.936542034
vn 0.116219364 -0.330729663 -0.936542094
vn 0.116219357 -0.330729663 -0.936542034
vn 0.76006496 0.167412013 0.6279127
vn 0.76006496 0.167411998 0.6279127
vn 0.760065019 0.167412028 0.6279127
vn -0.880892336 -0.352265298 0.316129565
vn -0.880892277 -0.352265298 0.316129565
vn -0.880892277 -0.352265298 0.316129595
vn 0.150101542 0.0809565559 -0.98535049
vn 0.150101542 0.0809565485 -0.98535043
vn 0.150101542 0.0809565485 -0.98535049
g 
f 1/1/1 2/2/2 5/3/3
f 2/4/4 3/5/5 6/6/6
f 3/7/7 1/8/8 4/9/9
f 4/10/10 5/11/11 8/12/12
f 5/13/13 6/14/14 9/15/15
f 6/16/16 4/17/17 7/18/18
f 7/19/19 8/20/20 11/21/21
f 8/22/22 9/23/23 12/24/24
f 9/25/25 7/26/26 10/27/27
f 10/28/28 11/29/29 14/30/30
f 11/31/31 12/32/32 15/33/33
f 12/34/34 10/35/35 13/36/36
f 13/37/37 14/38/38 17/39/39
f 14/40/40 15/41/41 18/42/42
f 15/43/43 13/44/44 16/45/45
f 16/46/46 17/47/47 20/48/48
f 17/49/49 18/50/50 21/51/51
f 18/52/52 16/53/53 19/54/54
f 19/55/55 20/56/56 23/57/57
f 20/58/58 21/59/59 24/60/60
f 21/61/61 19/62/62 22/63/63
f 22/64/64 23/65/65 26/66/66
f 23/67/67 24/68/68 27/69/69
f 24/70/70 22/71/71 25/72/72
f 25/73/73 26/74/74 29/75/75
f 26/76/76 27/77/77 30/78/78
f 27/79/79 25/80/80 28/81/81
f 28/82/82 29/83/83 1/84/84
f 29/85/85 30/86/86 2/87/87
f 30/88/88 28/89/89 3/90/90
f 28/91/91 1/92/92 3/93/93
f 30/94/94 3/95/95 2/96/96
f 29/97/97 2/98/98 1/99/99
f 28/100/100 30/101/101 27/102/102
f 30/103/103 29/104/104 26/105/105
f 29/106/106 28/107/107 25/108/108
f 25/109/109 27/110/110 24/111/111
f 27/112/112 26/113/113 23/114/114
f 26/115/115 25/116/116 22/117/117
f 22/118/118 24/119/119 21/120/120
f 24/121/121 23/122/122 20/123/123
f 23/124/124 22/125/125 19/126/126
f 19/127/127 21/128/128 18/129/129
f 21/130/130 20/131/131 17/132/132
f 20/133/133 19/134/134 16/135/135
f 16/136/136 18/137/137 15/138/138
f 18/139/139 17/140/140 14/141/141
f 17/142/142 16/143/143 13/144/144
f 13/145/145 15/146/146 12/147/147
f 15/148/148 14/149/149 11/150/150
f 14/151/151 13/152/152 10/153/153
f 10/154/154 12/155/155 9/156/156
f 12/157/157 11/158/158 8/159/159
f 11/160/160 10/161/161 7/162/162
f 7/163/163 9/164/164 6/165/165
f 9/166/166 8/167/167 5/168/168
f 8/169/169 7/170/170 4/171/171
f 4/172/172 6/173/173 3/174/174
f 6/175/175 5/176/176 2/177/177
f 5/178/178 4/179/179 1/180/180
