# File exported by Houdini 15.5.565 (www.sidefx.com)
# 30 points
# 180 vertices
# 60 primitives
# Bounds: [-1.0631814, -1.05051875, -0.102761015] to [1.11903071, 0.973696589, 0.123794943]
g 
v 1.11903071 0.0353311598 0.0326971002
v 1.03551459 0.0288130008 -0.0288055092
v 1.02463591 0.0230069831 0.074383378
v 0.788213015 0.622684181 0.0492528901
v 0.712771654 0.555873156 0.0238582306
v 0.732412934 0.576534092 0.123794943
v 0.308404118 0.97215265 -0.0376141705
v 0.273653537 0.87583375 -0.0198639762
v 0.289971322 0.94067198 0.0596956387
v -0.345661283 0.967302263 -0.0683900043
v -0.316761523 0.884824216 -0.0121568097
v -0.34228307 0.973696589 0.0352811031
v -0.835021734 0.582466543 -0.00147888809
v -0.780337095 0.551498532 0.081289269
v -0.864545643 0.611064553 0.0939699933
v -0.988969862 -0.0371111967 0.00852109864
v -0.963294685 -0.0452426001 0.108893722
v -1.0631814 -0.048415374 0.0803880766
v -0.727418542 -0.59962666 -0.102761015
v -0.739734411 -0.616646647 -0.000983629376
v -0.803099871 -0.66254127 -0.069383204
v -0.295835435 -0.896211922 -0.0374478027
v -0.324270189 -0.946020246 0.0492158905
v -0.33293885 -0.993126214 -0.0430114344
v 0.291745394 -0.958497345 0.0463885553
v 0.311625212 -1.03947794 0.108412206
v 0.316982478 -1.05051875 0.00521628559
v 0.819024563 -0.576903164 0.0293131191
v 0.901408553 -0.634892702 0.0548100695
v 0.877176464 -0.620156825 -0.0451682284
vt 0 0.16143088 0
vt 0.020115789 0.159860924 0
vt 0.0978520215 0.286809236 0
vt 0.777161419 0.563207388 0
vt 0.802015603 0.561808944 0
vt 0.813916981 0.695132136 0
vt 0.318050236 0.662807107 0
vt 0.340786308 0.665775597 0
vt 0.26110518 0.807246089 0
vt 0.0796811283 0.302901417 0
vt 0.0978520215 0.286809236 0
vt 0.203618526 0.3638753 0
vt 0.956541538 0.796751976 0
vt 0.961272418 0.820822835 0
vt 0.854705393 0.805383801 0
vt 0.247665063 0.7961303 0
vt 0.26110518 0.807246089 0
vt 0.145537838 0.89141947 0
vt 0.195248455 0.387074798 0
vt 0.203618526 0.3638753 0
vt 0.345826566 0.366040766 0
vt 0.850775063 0.786220968 0
vt 0.854705393 0.805383801 0
vt 0.702419877 0.799503326 0
vt 0.755383193 0.293830693 0
vt 0.759822965 0.317268848 0
vt 0.602284014 0.32468152 0
vt 0.352787405 0.385906518 0
vt 0.345826566 0.366040766 0
vt 0.457483917 0.285755545 0
vt 0.540390849 0.859221101 0
vt 0.534243762 0.880626976 0
vt 0.408450961 0.793283045 0
vt 0.603097677 0.299711198 0
vt 0.602284014 0.32468152 0
vt 0.484416068 0.308565229 0
vt 0.729004323 0.695715606 0
vt 0.709068716 0.688256621 0
vt 0.702419877 0.544524848 0
vt 0.428733528 0.778935909 0
vt 0.408450961 0.793283045 0
vt 0.360607326 0.634439945 0
vt 0.900629759 0.621611834 0
vt 0.87763983 0.614723682 0
vt 0.880048394 0.465491444 0
vt 0.7265957 0.546483338 0
vt 0.702419877 0.544524848 0
vt 0.728885055 0.406895787 0
vt 0.384666145 0.635204136 0
vt 0.360607326 0.634439945 0
vt 0.423250854 0.486520916 0
vt 0.980178893 0.241367757 0
vt 0.962304294 0.244090512 0
vt 0.899306774 0.10860239 0
vt 0.705386281 0.76639998 0
vt 0.702419877 0.741885781 0
vt 0.802489042 0.729794681 0
vt 0.43851313 0.497575134 0
vt 0.423250854 0.486520916 0
vt 0.536494374 0.406895816 0
vt 0.917535424 0.0934486985 0
vt 0.899306774 0.10860239 0
vt 0.795355141 0.037166521 0
vt 0.809337854 0.750668526 0
vt 0.802489042 0.729794681 0
vt 0.955651581 0.715536535 0
vt 0.100069188 0.933973849 0
vt 0.0979812443 0.911759913 0
vt 0.254522055 0.923376083 0
vt 0.804291904 0.0138236322 0
vt 0.795355141 0.037166521 0
vt 0.653829753 0.022164382 0
vt 0.141525388 0.4264009 0
vt 0.146313667 0.406895787 0
vt 0.288369536 0.504344642 0
vt 0.253231704 0.948231995 0
vt 0.254522055 0.923376083 0
vt 0.389451027 0.911240399 0
vt 0.647751093 0 0
vt 0.653829753 0.022164382 0
vt 0.526828706 0.114075594 0
vt 0.268526465 0.518312097 0
vt 0.288369536 0.504344642 0
vt 0.340786308 0.665775597 0
vt 0.83373791 0.462768704 0
vt 0.857818782 0.466318011 0
vt 0.853877664 0.622629583 0
vt 0.512822151 0.103657469 0
vt 0.526828706 0.114075594 0
vt 0.477304906 0.258570641 0
vt 0.268526465 0.518312097 0
vt 0.340786308 0.665775597 0
vt 0.318050236 0.662807107 0
vt 0.773220301 0.406895816 0
vt 0.802015603 0.561808944 0
vt 0.777161419 0.563207388 0
vt 0.0524167232 0 0
vt 0.020115789 0.159860924 0
vt 0 0.16143088 0
vt 0.526828706 0.114075594 0
vt 0.512822151 0.103657469 0
vt 0.647751093 0 0
vt 0.389451027 0.911240399 0
vt 0.395287573 0.935321271 0
vt 0.253231704 0.948231995 0
vt 0.288369536 0.504344642 0
vt 0.268526465 0.518312097 0
vt 0.141525388 0.4264009 0
vt 0.653829753 0.022164382 0
vt 0.647751093 0 0
vt 0.804291904 0.0138236322 0
vt 0.254522055 0.923376083 0
vt 0.253231704 0.948231995 0
vt 0.100069188 0.933973849 0
vt 0.146313667 0.406895787 0
vt 0.141525388 0.4264009 0
vt 0 0.441403031 0
vt 0.795355141 0.037166521 0
vt 0.804291904 0.0138236322 0
vt 0.917535424 0.0934486985 0
vt 0.0979812443 0.911759913 0
vt 0.100069188 0.933973849 0
vt 0 0.921882749 0
vt 0.802489042 0.729794681 0
vt 0.809337854 0.750668526 0
vt 0.705386281 0.76639998 0
vt 0.899306774 0.10860239 0
vt 0.917535424 0.0934486985 0
vt 0.980178893 0.241367757 0
vt 0.423250854 0.486520916 0
vt 0.43851313 0.497575134 0
vt 0.384666145 0.635204136 0
vt 0.728885055 0.406895787 0
vt 0.753399253 0.410995245 0
vt 0.7265957 0.546483338 0
vt 0.880048394 0.465491444 0
vt 0.897358358 0.462768704 0
vt 0.900629759 0.621611834 0
vt 0.360607326 0.634439945 0
vt 0.384666145 0.635204136 0
vt 0.428733528 0.778935909 0
vt 0.702419877 0.544524848 0
vt 0.7265957 0.546483338 0
vt 0.729004323 0.695715606 0
vt 0.484416068 0.308565229 0
vt 0.477304935 0.28557533 0
vt 0.603097677 0.299711198 0
vt 0.408450961 0.793283045 0
vt 0.428733528 0.778935909 0
vt 0.540390849 0.859221101 0
vt 0.846909404 0.442947716 0
vt 0.833737969 0.423012078 0
vt 0.951605916 0.406895787 0
vt 0.602284014 0.32468152 0
vt 0.603097677 0.299711198 0
vt 0.755383193 0.293830693 0
vt 0.534243762 0.880626976 0
vt 0.540390849 0.859221101 0
vt 0.682598889 0.857055664 0
vt 0.345826566 0.366040766 0
vt 0.352787405 0.385906518 0
vt 0.195248455 0.387074798 0
vt 0.759822965 0.317268848 0
vt 0.755383193 0.293830693 0
vt 0.861950159 0.278391659 0
vt 0.854705393 0.805383801 0
vt 0.850775063 0.786220968 0
vt 0.956541538 0.796751976 0
vt 0.203618526 0.3638753 0
vt 0.195248455 0.387074798 0
vt 0.0796811283 0.302901417 0
vt 0.26110518 0.807246089 0
vt 0.247665063 0.7961303 0
vt 0.318050236 0.662807107 0
vt 0.813916981 0.695132136 0
vt 0.789846063 0.690155745 0
vt 0.777161419 0.563207388 0
vt 0.0978520215 0.286809236 0
vt 0.0796811283 0.302901417 0
vt 0 0.16143088 0
vn 0.524171889 0.396292657 -0.753787696
vn 0.524171948 0.396292657 -0.753787696
vn 0.524171948 0.396292657 -0.753787696
vn -0.882416964 -0.455262423 -0.11864458
vn -0.882416904 -0.455262393 -0.118644573
vn -0.882416904 -0.455262363 -0.118644565
vn 0.376423568 0.186435193 0.907495022
vn 0.376423568 0.186435208 0.907494962
vn 0.376423568 0.186435208 0.907495022
vn 0.200236082 0.14234595 -0.969352007
vn 0.200236082 0.14234595 -0.969351947
vn 0.200236097 0.14234595 -0.969351947
vn -0.634497344 -0.722686946 0.274110764
vn -0.634497285 -0.722686946 0.274110764
vn -0.634497344 -0.722687006 0.274110794
vn 0.354332775 0.652894557 0.669460177
vn 0.354332715 0.652894557 0.669460177
vn 0.354332775 0.652894616 0.669460237
vn -0.015525776 -0.1757918 -0.984304905
vn -0.0155257769 -0.175791815 -0.984304965
vn -0.0155257769 -0.1757918 -0.984304965
vn -0.0647137687 -0.767012477 0.63836056
vn -0.0647137612 -0.767012358 0.6383605
vn -0.0647137612 -0.767012358 0.63836056
vn -0.0213701185 0.952411115 0.304066241
vn -0.0213701203 0.952411175 0.304066241
vn -0.0213701203 0.952411175 0.304066241
vn 0.193871766 -0.50535661 -0.840849876
vn 0.193871751 -0.50535661 -0.840849876
vn 0.193871766 -0.50535661 -0.840849936
vn 0.348272026 -0.361614913 0.864835978
vn 0.348271996 -0.361614913 0.864835978
vn 0.348272026 -0.361614943 0.864836037
vn -0.620286882 0.783870339 -0.0281357188
vn -0.620286822 0.783870339 -0.0281357188
vn -0.620286822 0.78387028 -0.0281357169
vn 0.758023679 -0.260074705 -0.598131537
vn 0.75802362 -0.260074675 -0.598131478
vn 0.75802362 -0.260074675 -0.598131478
vn 0.111268438 -0.0539509431 0.992324889
vn 0.111268438 -0.0539509431 0.992324829
vn 0.111268438 -0.0539509431 0.992324829
vn -0.911136389 0.220776126 -0.347977519
vn -0.911136448 0.220776141 -0.347977519
vn -0.911136389 0.220776141 -0.347977549
vn 0.899197996 0.389963984 -0.198421776
vn 0.899197996 0.389963984 -0.198421791
vn 0.899197876 0.389963955 -0.198421746
vn -0.249604389 -0.327912688 0.911137223
vn -0.249604374 -0.327912629 0.911137164
vn -0.249604404 -0.327912658 0.911137223
vn -0.672074497 -0.169911921 -0.720725954
vn -0.672074497 -0.169911906 -0.720725894
vn -0.672074497 -0.169911906 -0.720725894
vn 0.593311429 0.779190779 0.20209761
vn 0.593311429 0.779190719 0.202097595
vn 0.593311369 0.77919066 0.20209758
vn -0.414350957 -0.530288279 0.739667237
vn -0.414350957 -0.530288279 0.739667237
vn -0.414350986 -0.530288339 0.739667296
vn -0.108121045 -0.361292064 -0.926163018
vn -0.108121045 -0.361292064 -0.926163018
vn -0.108121045 -0.361292094 -0.926163018
vn 0.0773855895 0.853227019 0.515766621
vn 0.077385582 0.85322696 0.515766561
vn 0.0773855895 0.853227019 0.515766621
vn -0.111927643 -0.880664706 0.460328102
vn -0.111927643 -0.880664647 0.460328072
vn -0.111927643 -0.880664706 0.460328102
vn 0.141524568 0.00264735706 -0.989931226
vn 0.141524553 0.00264735706 -0.989931166
vn 0.141524568 0.00264735729 -0.989931226
vn -0.294614583 0.534430206 0.792203605
vn -0.294614613 0.534430265 0.792203665
vn -0.294614613 0.534430265 0.792203665
vn 0.611650527 -0.782653213 0.115488097
vn 0.611650527 -0.782653272 0.11548809
vn 0.611650527 -0.782653272 0.11548809
vn -0.268825382 0.330981672 -0.904535234
vn -0.268825382 0.330981672 -0.904535234
vn -0.268825412 0.330981702 -0.904535294
vn -0.225670844 0.105229728 0.968503654
vn -0.225670859 0.10522975 0.968503654
vn -0.225670844 0.105229735 0.968503714
vn 0.939448595 -0.222641855 -0.260512769
vn 0.939448595 -0.222641855 -0.260512769
vn 0.939448655 -0.222641855 -0.260512799
vn -0.670289993 0.281324357 -0.686707973
vn -0.670290053 0.281324357 -0.686708033
vn -0.670290053 0.281324357 -0.686708033
vn 0.417773485 -0.209603071 0.884042919
vn 0.417773485 -0.209603071 0.884042859
vn 0.417773485 -0.209603071 0.884042919
vn -0.967168391 0.238206342 -0.0885607377
vn -0.967168391 0.238206357 -0.0885607526
vn -0.967168391 0.238206342 -0.0885607451
vn 0.589758515 -0.217158422 -0.777834833
vn 0.589758515 -0.217158437 -0.777834833
vn 0.589758515 -0.217158422 -0.777834833
vn -0.479214519 0.543058872 -0.689521909
vn -0.479214519 0.543058872 -0.689521968
vn -0.479214519 0.543058872 -0.689521968
vn 0.532514274 -0.809172273 -0.24833174
vn 0.532514334 -0.809172392 -0.24833177
vn 0.532514334 -0.809172392 -0.248331755
vn -0.135780439 0.230732873 0.963496745
vn -0.135780424 0.230732858 0.963496685
vn -0.135780424 0.230732858 0.963496745
vn 0.104511693 0.429910362 -0.896802366
vn 0.104511701 0.429910421 -0.896802366
vn 0.104511693 0.429910332 -0.896802306
vn -0.153573588 -0.983341515 0.0972339883
vn -0.153573617 -0.983341634 0.0972340032
vn -0.153573602 -0.983341575 0.0972339883
vn -0.0504337326 0.599445224 0.798825204
vn -0.0504337363 0.599445343 0.798825264
vn -0.05043374 0.599445343 0.798825324
vn 0.0757493302 0.0282194242 -0.996727467
vn 0.0757493302 0.0282194261 -0.996727467
vn 0.0757493377 0.0282194261 -0.996727526
vn -0.596788704 -0.690476596 0.408760905
vn -0.596788645 -0.690476537 0.408760846
vn -0.596788645 -0.690476537 0.408760846
vn 0.413961947 0.723920643 0.551882565
vn 0.413961947 0.723920643 0.551882565
vn 0.413961947 0.723920643 0.551882565
vn -0.429583877 0.0381033011 -0.902222693
vn -0.429583907 0.0381033048 -0.902222693
vn -0.429583848 0.0381033011 -0.902222693
vn -0.55125773 -0.360377371 0.752491236
vn -0.55125773 -0.360377371 0.752491236
vn -0.55125773 -0.360377371 0.752491236
vn 0.905630171 0.386618316 0.174241751
vn 0.905630231 0.386618346 0.174241751
vn 0.905630171 0.386618346 0.174241737
vn -0.695423126 0.223527178 -0.682951152
vn -0.695423126 0.223527163 -0.682951152
vn -0.695423126 0.223527178 -0.682951152
vn -0.275919735 0.128658324 0.95253098
vn -0.275919706 0.12865831 0.952530921
vn -0.275919735 0.128658324 0.95253104
vn 0.93645829 -0.236860245 -0.258733273
vn 0.936458409 -0.23686026 -0.258733302
vn 0.936458409 -0.236860245 -0.258733302
vn -0.554094791 0.734646022 -0.39150241
vn -0.554094791 0.734645963 -0.39150238
vn -0.554094791 0.734646022 -0.39150238
vn 0.173107669 0.0351850502 0.984274268
vn 0.173107654 0.0351850502 0.984274209
vn 0.173107654 0.0351850502 0.984274209
vn 0.462412298 -0.685736835 -0.562085211
vn 0.462412328 -0.685736835 -0.562085211
vn 0.462412328 -0.685736835 -0.562085211
vn 0.0544927828 0.996509612 -0.0632393733
vn 0.0544927754 0.996509492 -0.0632393658
vn 0.0544927791 0.996509552 -0.0632393733
vn 0.00436712569 -0.469911218 0.882702827
vn 0.00436712522 -0.469911188 0.882702827
vn 0.00436712569 -0.469911218 0.882702827
vn 0.0432660393 -0.552403271 -0.83245343
vn 0.0432660393 -0.552403212 -0.832453489
vn 0.0432660393 -0.552403212 -0.83245343
vn 0.564882874 0.747774124 0.348914444
vn 0.564882874 0.747774065 0.348914415
vn 0.564882815 0.747774005 0.348914415
vn -0.50756526 -0.613987803 0.604480267
vn -0.50756532 -0.613987863 0.604480267
vn -0.50756526 -0.613987803 0.604480267
vn 0.0363497697 -0.193782821 -0.98037076
vn 0.0363497697 -0.193782821 -0.98037082
vn 0.0363497697 -0.193782821 -0.98037082
vn 0.669725537 0.292641491 0.682516396
vn 0.669725537 0.292641491 0.682516456
vn 0.669725537 0.292641491 0.682516396
vn -0.809697449 -0.522509098 0.267159343
vn -0.809697509 -0.522509098 0.267159373
vn -0.809697509 -0.522509158 0.267159402
vn 0.201550335 0.140841931 -0.969299257
vn 0.201550335 0.140841946 -0.969299257
vn 0.20155035 0.140841946 -0.969299316
g 
f 1/1/1 2/2/2 5/3/3
f 2/4/4 3/5/5 6/6/6
f 3/7/7 1/8/8 4/9/9
f 4/10/10 5/11/11 8/12/12
f 5/13/13 6/14/14 9/15/15
f 6/16/16 4/17/17 7/18/18
f 7/19/19 8/20/20 11/21/21
f 8/22/22 9/23/23 12/24/24
f 9/25/25 7/26/26 10/27/27
f 10/28/28 11/29/29 14/30/30
f 11/31/31 12/32/32 15/33/33
f 12/34/34 10/35/35 13/36/36
f 13/37/37 14/38/38 17/39/39
f 14/40/40 15/41/41 18/42/42
f 15/43/43 13/44/44 16/45/45
f 16/46/46 17/47/47 20/48/48
f 17/49/49 18/50/50 21/51/51
f 18/52/52 16/53/53 19/54/54
f 19/55/55 20/56/56 23/57/57
f 20/58/58 21/59/59 24/60/60
f 21/61/61 19/62/62 22/63/63
f 22/64/64 23/65/65 26/66/66
f 23/67/67 24/68/68 27/69/69
f 24/70/70 22/71/71 25/72/72
f 25/73/73 26/74/74 29/75/75
f 26/76/76 27/77/77 30/78/78
f 27/79/79 25/80/80 28/81/81
f 28/82/82 29/83/83 1/84/84
f 29/85/85 30/86/86 2/87/87
f 30/88/88 28/89/89 3/90/90
f 28/91/91 1/92/92 3/93/93
f 30/94/94 3/95/95 2/96/96
f 29/97/97 2/98/98 1/99/99
f 28/100/100 30/101/101 27/102/102
f 30/103/103 29/104/104 26/105/105
f 29/106/106 28/107/107 25/108/108
f 25/109/109 27/110/110 24/111/111
f 27/112/112 26/113/113 23/114/114
f 26/115/115 25/116/116 22/117/117
f 22/118/118 24/119/119 21/120/120
f 24/121/121 23/122/122 20/123/123
f 23/124/124 22/125/125 19/126/126
f 19/127/127 21/128/128 18/129/129
f 21/130/130 20/131/131 17/132/132
f 20/133/133 19/134/134 16/135/135
f 16/136/136 18/137/137 15/138/138
f 18/139/139 17/140/140 14/141/141
f 17/142/142 16/143/143 13/144/144
f 13/145/145 15/146/146 12/147/147
f 15/148/148 14/149/149 11/150/150
f 14/151/151 13/152/152 10/153/153
f 10/154/154 12/155/155 9/156/156
f 12/157/157 11/158/158 8/159/159
f 11/160/160 10/161/161 7/162/162
f 7/163/163 9/164/164 6/165/165
f 9/166/166 8/167/167 5/168/168
f 8/169/169 7/170/170 4/171/171
f 4/172/172 6/173/173 3/174/174
f 6/175/175 5/176/176 2/177/177
f 5/178/178 4/179/179 1/180/180
